HIERARCHY
ROOT SpineBase
{
  OFFSET 0.000000 0.000000 0.000000
  CHANNELS 6 Xposition Yposition Zposition Zrotation Xrotation Yrotation
  JOINT SpineMid
  {
    OFFSET -0.000000 35.605316 0.000000
    CHANNELS 3 Zrotation Xrotation Yrotation
    JOINT SpineShoulder
    {
      OFFSET -0.153506 26.385071 -0.653522
      CHANNELS 3 Zrotation Xrotation Yrotation
      JOINT Neck
      {
        OFFSET -0.102532 8.683985 -0.557122
        CHANNELS 3 Zrotation Xrotation Yrotation
        JOINT Head
        {
          OFFSET -6.856115 9.748843 5.882658
          CHANNELS 3 Zrotation Xrotation Yrotation
          End Site
          {
            OFFSET 0 0 0
          }
        }
      }
      JOINT ShoulderLeft
      {
        OFFSET -12.501395 -10.251372 -16.917530
        CHANNELS 3 Zrotation Xrotation Yrotation
        JOINT ElbowLeft
        {
          OFFSET 4.798401 -27.625056 -4.706329
          CHANNELS 3 Zrotation Xrotation Yrotation
          JOINT WristLeft
          {
            OFFSET -1.827898 -22.458228 7.740916
            CHANNELS 3 Zrotation Xrotation Yrotation
            JOINT HandLeft
            {
              OFFSET 3.768790 -4.172622 2.222582
              CHANNELS 3 Zrotation Xrotation Yrotation
              JOINT HandTipLeft
              {
                OFFSET 0.427870 -5.090113 -1.407696
                CHANNELS 3 Zrotation Xrotation Yrotation
                End Site
                {
                  OFFSET 0 0 0
                }
              }
              JOINT ThumbLeft
              {
                OFFSET -0.914460 4.449141 -1.252061
                CHANNELS 3 Zrotation Xrotation Yrotation
                End Site
                {
                  OFFSET 0 0 0
                }
              }
            }
          }
        }
      }
      JOINT ShoulderRight
      {
        OFFSET 5.529002 -4.832043 -14.728511
        CHANNELS 3 Zrotation Xrotation Yrotation
        JOINT ElbowRight
        {
          OFFSET 2.314107 -27.227304 -7.263796
          CHANNELS 3 Zrotation Xrotation Yrotation
          JOINT WristRight
          {
            OFFSET -6.615012 -19.824254 -0.751581
            CHANNELS 3 Zrotation Xrotation Yrotation
            JOINT HandRight
            {
              OFFSET -0.035017 -6.111309 4.553109
              CHANNELS 3 Zrotation Xrotation Yrotation
              JOINT HandTipRight
              {
                OFFSET -1.240172 -6.551250 -1.200800
                CHANNELS 3 Zrotation Xrotation Yrotation
                End Site
                {
                  OFFSET 0 0 0
                }
              }
              JOINT ThumbRight
              {
                OFFSET -5.463832 1.935628 2.080247
                CHANNELS 3 Zrotation Xrotation Yrotation
                End Site
                {
                  OFFSET 0 0 0
                }
              }
            }
          }
        }
      }
    }
  }
  JOINT HipLeft
  {
    OFFSET -7.955652 -0.281654 -2.803669
    CHANNELS 3 Zrotation Xrotation Yrotation
    JOINT KneeLeft
    {
      OFFSET 1.174498 -28.375179 13.719580
      CHANNELS 3 Zrotation Xrotation Yrotation
      JOINT AnkleLeft
      {
        OFFSET 11.363798 -39.463117 4.468811
        CHANNELS 3 Zrotation Xrotation Yrotation
        JOINT FootLeft
        {
          OFFSET -2.545845 -4.549440 -7.013424
          CHANNELS 3 Zrotation Xrotation Yrotation
          End Site
          {
            OFFSET 0 0 0
          }
        }
      }
    }
  }
  JOINT HipRight
  {
    OFFSET 8.007096 1.762750 -4.984476
    CHANNELS 3 Zrotation Xrotation Yrotation
    JOINT KneeRight
    {
      OFFSET -1.058836 -31.175678 -4.617509
      CHANNELS 3 Zrotation Xrotation Yrotation
      JOINT AnkleRight
      {
        OFFSET 6.197694 -36.608966 4.322380
        CHANNELS 3 Zrotation Xrotation Yrotation
        JOINT FootRight
        {
          OFFSET -3.410830 -7.200209 -3.035063
          CHANNELS 3 Zrotation Xrotation Yrotation
          End Site
          {
            OFFSET 0 0 0
          }
        }
      }
    }
  }
}
MOTION
Frames: 5
Frame Time: 0.033333
-5.673154 76.357549 325.551895 0.000000 0.000000 7.779504 -0.000000 -0.000000 -7.779504 -0.000000 0.000000 0.000000 -0.000000 0.000000 0.000000 0.000000 0.000000 0.000000 -0.000000 0.000000 0.000000 -0.000000 0.000000 0.000000 -0.000000 0.000000 0.000000 -0.000000 0.000000 0.000000 0.000000 0.000000 0.000000 0.000000 0.000000 0.000000 -0.000000 0.000000 0.000000 -0.000000 0.000000 0.000000 -0.000000 0.000000 0.000000 -0.000000 0.000000 0.000000 0.000000 0.000000 0.000000 0.000000 0.000000 0.000000 -0.000000 -0.000000 -7.779504 -0.000000 0.000000 0.000000 -0.000000 0.000000 0.000000 0.000000 0.000000 0.000000 -0.000000 -0.000000 -7.779504 -0.000000 0.000000 0.000000 -0.000000 0.000000 0.000000 0.000000 0.000000 0.000000
-6.159831 76.858827 326.381965 -0.161313 0.094712 9.924647 0.142576 -0.121097 -9.924363 -0.000000 0.000000 0.000000 -0.000000 0.000000 0.000000 0.000000 0.000000 0.000000 -0.000000 0.000000 0.000000 -0.000000 0.000000 0.000000 -0.000000 0.000000 0.000000 -1.313189 -0.838844 0.283905 0.000000 0.000000 0.000000 0.000000 0.000000 0.000000 -0.000000 0.000000 0.000000 -0.000000 0.000000 0.000000 -0.000000 0.000000 0.000000 -1.652825 -3.017320 0.832490 0.000000 0.000000 0.000000 0.000000 0.000000 0.000000 0.217381 1.114840 -9.941542 0.789964 0.018272 0.457902 -3.666628 -13.081983 12.116923 0.000000 0.000000 0.000000 0.994779 0.051459 -10.054516 -0.808997 -0.318678 0.128420 0.261628 0.699027 -0.442360 0.000000 0.000000 0.000000
-6.597955 77.240008 327.193744 -0.298108 0.161075 11.836800 0.258730 -0.218797 -11.835887 -0.000000 0.000000 0.000000 1.337067 0.609015 -0.381295 0.000000 0.000000 0.000000 -0.000000 0.000000 0.000000 -0.000000 0.000000 0.000000 -0.720292 0.673655 0.231060 -1.836294 -2.410202 0.269387 0.000000 0.000000 0.000000 0.000000 0.000000 0.000000 -0.000000 0.000000 0.000000 -0.453127 0.999765 -0.311965 -0.355574 -0.371950 -0.299909 -1.839214 -6.104371 1.995135 0.000000 0.000000 0.000000 0.000000 0.000000 0.000000 0.455818 1.945923 -11.871234 1.508282 0.349850 0.921072 -4.970889 -25.000253 22.714528 0.000000 0.000000 0.000000 1.847739 0.148053 -12.077282 -1.047575 0.096547 0.419878 0.101849 0.603496 -1.066651 0.000000 0.000000 0.000000
-6.987525 77.501089 327.987234 -0.409331 0.198321 13.483867 0.351810 -0.288294 -13.482273 -0.000000 0.000000 0.000000 1.870268 0.965119 -0.458064 0.000000 0.000000 0.000000 -0.000000 0.000000 0.000000 -0.000000 0.000000 0.000000 -1.053563 0.925205 0.286594 -2.652002 -3.619132 0.381794 0.000000 0.000000 0.000000 0.000000 0.000000 0.000000 0.750172 0.593466 -0.153284 -1.365821 0.766608 -0.284363 -0.536427 -0.561327 -0.450445 -1.947326 -8.146276 2.621630 0.000000 0.000000 0.000000 0.000000 0.000000 0.000000 0.681142 2.543369 -13.536639 2.152172 0.939412 1.375820 -4.791147 -33.887190 30.760019 0.000000 0.000000 0.000000 2.573685 0.316128 -13.819282 -1.359613 0.044091 0.596992 0.157093 0.913409 -1.597677 0.000000 0.000000 0.000000
-7.328541 77.642073 328.762433 -0.494164 0.205954 14.839903 0.424940 -0.325641 -14.837807 -0.000000 0.000000 0.000000 2.310030 1.355981 -0.458011 0.000000 0.000000 0.000000 -0.000000 0.000000 0.000000 -0.000000 0.000000 0.000000 -1.371310 1.125698 0.304668 -3.377595 -4.827017 0.478714 0.000000 0.000000 0.000000 0.000000 0.000000 0.000000 0.919589 0.827042 -0.181208 -1.653210 0.804614 -0.349261 -0.722950 -0.749638 -0.602856 -1.580237 -9.527107 3.071823 0.000000 0.000000 0.000000 0.000000 0.000000 0.000000 0.868031 2.944692 -14.911291 2.718664 1.744384 1.811603 -4.277822 -39.794519 36.039255 0.000000 0.000000 0.000000 3.184522 0.579065 -15.257936 -1.539268 -0.075783 0.755755 0.214254 1.227645 -2.127491 0.000000 0.000000 0.000000
